# Blender 3.5.1
# www.blender.org
mtllib walle_mata.mtl
o Glass.001
v 0.590357 1.067466 0.188533
v 0.862594 1.074186 0.188533
v 0.726557 1.075176 0.202666
v 0.729835 0.934707 0.188533
v 0.723116 1.206944 0.188533
v 0.820509 1.169619 0.188533
v 0.825268 0.976793 0.188533
v 0.627683 1.164859 0.188533
v 0.632442 0.972033 0.188533
v 0.429550 1.067466 0.188533
v 0.157313 1.074186 0.188533
v 0.293349 1.075176 0.202666
v 0.290072 0.934707 0.188533
v 0.296791 1.206944 0.188533
v 0.199398 1.169619 0.188533
v 0.194639 0.976793 0.188533
v 0.392224 1.164859 0.188533
v 0.387465 0.972033 0.188533
v 0.837695 1.149222 0.188533
v 0.850803 1.125957 0.188533
v 0.859246 1.100622 0.188533
v 0.723986 1.174512 0.193722
v 0.724852 1.141876 0.198249
v 0.725710 1.108832 0.201451
v 0.828594 1.074943 0.193722
v 0.794591 1.075496 0.198249
v 0.760580 1.075642 0.201451
v 0.799289 1.185778 0.188533
v 0.775405 1.197723 0.188533
v 0.749685 1.204905 0.188533
v 0.727390 1.040772 0.201451
v 0.728211 1.005757 0.198249
v 0.729025 0.970334 0.193722
v 0.860554 1.047616 0.188533
v 0.853372 1.021896 0.188533
v 0.841427 0.998012 0.188533
v 0.804871 0.959606 0.188533
v 0.781606 0.946498 0.188533
v 0.756272 0.938055 0.188533
v 0.692521 1.073962 0.201451
v 0.658472 1.072137 0.198249
v 0.624416 1.069903 0.193722
v 0.696679 1.203596 0.188533
v 0.671345 1.195154 0.188533
v 0.648079 1.182046 0.188533
v 0.703265 0.936747 0.188533
v 0.677545 0.943929 0.188533
v 0.653662 0.955874 0.188533
v 0.592396 1.094036 0.188533
v 0.599579 1.119756 0.188533
v 0.611523 1.143640 0.188533
v 0.615255 0.992430 0.188533
v 0.602147 1.015695 0.188533
v 0.593705 1.041029 0.188533
v 0.182211 1.149222 0.188533
v 0.169103 1.125957 0.188533
v 0.160661 1.100622 0.188533
v 0.295921 1.174512 0.193722
v 0.295055 1.141876 0.198249
v 0.294196 1.108832 0.201451
v 0.191312 1.074943 0.193722
v 0.225316 1.075496 0.198249
v 0.259327 1.075642 0.201451
v 0.220618 1.185778 0.188533
v 0.244501 1.197722 0.188533
v 0.270221 1.204905 0.188533
v 0.292516 1.040772 0.201451
v 0.291695 1.005757 0.198249
v 0.290882 0.970334 0.193722
v 0.159353 1.047616 0.188533
v 0.166535 1.021896 0.188533
v 0.178479 0.998012 0.188533
v 0.215035 0.959606 0.188533
v 0.238301 0.946498 0.188533
v 0.263635 0.938055 0.188533
v 0.327386 1.073962 0.201451
v 0.361434 1.072137 0.198249
v 0.395490 1.069903 0.193722
v 0.323228 1.203596 0.188533
v 0.348562 1.195154 0.188533
v 0.371827 1.182046 0.188533
v 0.316642 0.936747 0.188533
v 0.342361 0.943929 0.188533
v 0.366245 0.955874 0.188533
v 0.427510 1.094036 0.188533
v 0.420328 1.119756 0.188533
v 0.408384 1.143640 0.188533
v 0.404651 0.992430 0.188533
v 0.417760 1.015695 0.188533
v 0.426202 1.041029 0.188533
v 0.814544 0.987597 0.190439
v 0.786890 0.978850 0.192101
v 0.758259 0.972903 0.193276
v 0.822437 1.016195 0.192101
v 0.791315 1.011203 0.195213
v 0.759876 1.007575 0.197414
v 0.827331 1.045472 0.193276
v 0.794076 1.043506 0.197414
v 0.760761 1.041891 0.200341
v 0.825886 1.104042 0.193276
v 0.792511 1.106909 0.197414
v 0.759113 1.108678 0.200341
v 0.819570 1.132318 0.192101
v 0.788193 1.137683 0.195213
v 0.756580 1.141109 0.197414
v 0.810302 1.159470 0.190439
v 0.782225 1.167865 0.192101
v 0.753317 1.173114 0.193276
v 0.692326 1.107029 0.200341
v 0.658978 1.103613 0.197414
v 0.625674 1.099100 0.193276
v 0.693177 1.139544 0.197414
v 0.661713 1.134561 0.195213
v 0.630555 1.127653 0.192101
v 0.694747 1.171669 0.193276
v 0.666102 1.164999 0.192101
v 0.638429 1.155228 0.190439
v 0.699688 0.971457 0.193276
v 0.670767 0.975983 0.192101
v 0.642671 0.983355 0.190439
v 0.696473 1.006010 0.197414
v 0.664835 1.008081 0.195213
v 0.633421 1.011530 0.192101
v 0.693975 1.040243 0.200341
v 0.660543 1.040210 0.197414
v 0.627120 1.040530 0.193276
v 0.205363 0.987597 0.190439
v 0.197470 1.016195 0.192101
v 0.192575 1.045472 0.193276
v 0.233016 0.978850 0.192101
v 0.228592 1.011203 0.195213
v 0.225831 1.043506 0.197414
v 0.261648 0.972903 0.193276
v 0.260030 1.007575 0.197414
v 0.259145 1.041891 0.200341
v 0.194021 1.104042 0.193276
v 0.200336 1.132318 0.192101
v 0.209605 1.159470 0.190439
v 0.227396 1.106909 0.197414
v 0.231713 1.137683 0.195213
v 0.237682 1.167865 0.192101
v 0.260794 1.108678 0.200341
v 0.263326 1.141109 0.197414
v 0.266590 1.173114 0.193276
v 0.327581 1.107029 0.200341
v 0.326729 1.139544 0.197414
v 0.325160 1.171669 0.193276
v 0.360929 1.103613 0.197414
v 0.358194 1.134561 0.195213
v 0.353805 1.164999 0.192101
v 0.394232 1.099100 0.193276
v 0.389351 1.127653 0.192101
v 0.381478 1.155228 0.190439
v 0.320218 0.971457 0.193276
v 0.323433 1.006010 0.197414
v 0.325932 1.040243 0.200341
v 0.349140 0.975983 0.192101
v 0.355072 1.008081 0.195213
v 0.359364 1.040210 0.197414
v 0.377236 0.983355 0.190439
v 0.386485 1.011530 0.192101
v 0.392787 1.040530 0.193276
vn -0.0967 0.0921 -0.9910
vn -0.0955 0.0907 -0.9913
vn -0.1177 0.0730 -0.9904
vn -0.0778 0.1124 -0.9906
vn -0.0552 0.1022 -0.9932
vn -0.1068 0.0506 -0.9930
vn -0.1329 0.0392 -0.9904
vn -0.0616 0.0583 -0.9964
vn -0.0898 0.0858 -0.9923
vn -0.1125 0.0742 -0.9909
vn -0.0785 0.1079 -0.9911
vn -0.0584 0.1270 -0.9902
vn -0.0446 0.1270 -0.9909
vn -0.0316 0.1392 -0.9898
vn -0.0033 0.1335 -0.9910
vn -0.0027 0.1075 -0.9942
vn -0.0016 0.0621 -0.9981
vn -0.0000 -0.0006 -1.0000
vn -0.0639 -0.0021 -0.9980
vn -0.1116 -0.0031 -0.9938
vn -0.1396 -0.0036 -0.9902
vn -0.1457 0.0260 -0.9890
vn -0.1510 -0.0033 -0.9885
vn -0.1324 0.0537 -0.9897
vn -0.1075 -0.0582 -0.9925
vn -0.1193 -0.0826 -0.9894
vn -0.1341 -0.0471 -0.9899
vn -0.0608 -0.0643 -0.9961
vn -0.0962 -0.1012 -0.9902
vn -0.0977 -0.1026 -0.9899
vn -0.0533 -0.1122 -0.9923
vn -0.0774 -0.1249 -0.9892
vn -0.1470 -0.0331 -0.9886
vn 0.0016 -0.0655 -0.9979
vn 0.0028 -0.1155 -0.9933
vn -0.0414 -0.1401 -0.9893
vn 0.0036 -0.1456 -0.9893
vn -0.0271 -0.1536 -0.9878
vn -0.0568 -0.1403 -0.9885
vn -0.0788 -0.1193 -0.9897
vn -0.0907 -0.0949 -0.9913
vn -0.1145 -0.0833 -0.9899
vn -0.1346 -0.0619 -0.9890
vn 0.0638 -0.0611 -0.9961
vn 0.1008 -0.0961 -0.9903
vn 0.0587 -0.1093 -0.9923
vn 0.1099 -0.0526 -0.9925
vn 0.1228 -0.0763 -0.9895
vn 0.0833 -0.1206 -0.9892
vn 0.0482 -0.1378 -0.9893
vn 0.1024 -0.0974 -0.9900
vn 0.0637 0.0010 -0.9980
vn 0.1112 0.0024 -0.9938
vn 0.1357 -0.0403 -0.9899
vn 0.1390 0.0033 -0.9903
vn 0.1478 -0.0257 -0.9887
vn 0.1370 -0.0549 -0.9890
vn 0.1181 -0.0773 -0.9900
vn 0.0950 -0.0901 -0.9914
vn 0.0844 -0.1150 -0.9898
vn 0.0636 -0.1371 -0.9885
vn 0.0347 -0.1519 -0.9878
vn 0.0039 -0.1579 -0.9874
vn 0.0720 0.1159 -0.9906
vn 0.0500 0.1047 -0.9933
vn 0.0383 0.1289 -0.9909
vn 0.0918 0.0965 -0.9911
vn 0.0906 0.0951 -0.9913
vn 0.0585 0.0611 -0.9964
vn 0.1136 0.0785 -0.9904
vn 0.1038 0.0557 -0.9930
vn 0.0247 0.1405 -0.9898
vn -0.0035 0.1441 -0.9896
vn 0.0520 0.1295 -0.9902
vn 0.0729 0.1114 -0.9911
vn 0.0853 0.0899 -0.9923
vn 0.1084 0.0795 -0.9909
vn 0.1292 0.0599 -0.9898
vn 0.1303 0.0456 -0.9904
vn 0.1437 0.0331 -0.9891
vn 0.0967 0.0921 -0.9910
vn 0.0955 0.0907 -0.9913
vn 0.0778 0.1124 -0.9906
vn 0.1177 0.0730 -0.9904
vn 0.1068 0.0506 -0.9930
vn 0.0552 0.1022 -0.9932
vn 0.0446 0.1270 -0.9909
vn 0.0616 0.0583 -0.9964
vn 0.0898 0.0858 -0.9923
vn 0.0785 0.1079 -0.9911
vn 0.1125 0.0742 -0.9909
vn 0.1324 0.0537 -0.9897
vn 0.1329 0.0392 -0.9904
vn 0.1457 0.0260 -0.9890
vn 0.1396 -0.0036 -0.9902
vn 0.1116 -0.0031 -0.9938
vn 0.0639 -0.0021 -0.9980
vn 0.0016 0.0621 -0.9981
vn 0.0027 0.1075 -0.9942
vn 0.0033 0.1335 -0.9910
vn 0.0316 0.1392 -0.9898
vn 0.0035 0.1441 -0.9896
vn 0.0584 0.1270 -0.9902
vn 0.1193 -0.0826 -0.9894
vn 0.1075 -0.0582 -0.9925
vn 0.1341 -0.0471 -0.9899
vn 0.0977 -0.1026 -0.9899
vn 0.0962 -0.1012 -0.9902
vn 0.0608 -0.0643 -0.9961
vn 0.0774 -0.1248 -0.9892
vn 0.0533 -0.1122 -0.9923
vn 0.1470 -0.0331 -0.9886
vn 0.1510 -0.0033 -0.9885
vn 0.1346 -0.0619 -0.9890
vn 0.1145 -0.0833 -0.9899
vn 0.0907 -0.0949 -0.9913
vn 0.0788 -0.1193 -0.9897
vn 0.0568 -0.1403 -0.9885
vn 0.0414 -0.1401 -0.9893
vn 0.0271 -0.1536 -0.9878
vn -0.0036 -0.1456 -0.9893
vn -0.0028 -0.1155 -0.9933
vn -0.0016 -0.0655 -0.9979
vn -0.0638 -0.0611 -0.9961
vn -0.1008 -0.0961 -0.9903
vn -0.1099 -0.0526 -0.9925
vn -0.0587 -0.1093 -0.9923
vn -0.0833 -0.1206 -0.9892
vn -0.1228 -0.0763 -0.9895
vn -0.1357 -0.0403 -0.9899
vn -0.1024 -0.0974 -0.9900
vn -0.0637 0.0010 -0.9980
vn -0.0482 -0.1378 -0.9893
vn -0.0347 -0.1519 -0.9878
vn -0.0636 -0.1371 -0.9885
vn -0.0844 -0.1150 -0.9898
vn -0.0950 -0.0901 -0.9914
vn -0.1181 -0.0773 -0.9900
vn -0.1370 -0.0549 -0.9890
vn -0.1478 -0.0257 -0.9887
vn -0.1390 0.0033 -0.9903
vn -0.1503 0.0041 -0.9886
vn -0.1112 0.0024 -0.9938
vn -0.0500 0.1047 -0.9933
vn -0.0720 0.1159 -0.9906
vn -0.0383 0.1289 -0.9909
vn -0.0585 0.0611 -0.9964
vn -0.0906 0.0951 -0.9913
vn -0.0918 0.0965 -0.9911
vn -0.1038 0.0557 -0.9930
vn -0.1136 0.0785 -0.9904
vn -0.0247 0.1405 -0.9898
vn -0.1303 0.0456 -0.9904
vn -0.1437 0.0331 -0.9891
vn -0.1292 0.0599 -0.9898
vn -0.1084 0.0795 -0.9909
vn -0.0853 0.0899 -0.9923
vn -0.0729 0.1114 -0.9911
vn -0.0520 0.1295 -0.9902
vn 0.1503 0.0041 -0.9886
vn -0.0039 -0.1579 -0.9874
vt 0.500000 0.914605
vt 0.500000 0.825183
vt 0.500000 0.879753
vt 0.437500 0.889404
vt 0.562500 0.882836
vt 0.562500 0.825181
vt 0.437500 0.826365
vt 0.562500 0.914572
vt 0.437500 0.931292
vt 0.500000 0.914605
vt 0.500000 0.825183
vt 0.500000 0.879753
vt 0.437500 0.889404
vt 0.562500 0.882836
vt 0.562500 0.825181
vt 0.437500 0.826365
vt 0.562500 0.914572
vt 0.437500 0.931292
vt 0.546875 0.825182
vt 0.531250 0.825182
vt 0.515625 0.825183
vt 0.546875 0.879844
vt 0.531250 0.879037
vt 0.515625 0.879088
vt 0.500000 0.839895
vt 0.500000 0.854120
vt 0.500000 0.867532
vt 0.562500 0.839595
vt 0.562500 0.854009
vt 0.562500 0.868423
vt 0.484375 0.880921
vt 0.468750 0.882652
vt 0.453125 0.885126
vt 0.484375 0.825479
vt 0.468750 0.825774
vt 0.453125 0.826070
vt 0.437500 0.842125
vt 0.437500 0.857885
vt 0.437500 0.873644
vt 0.500000 0.890505
vt 0.500000 0.899906
vt 0.500000 0.908117
vt 0.562500 0.890770
vt 0.562500 0.898704
vt 0.562500 0.906638
vt 0.437500 0.899876
vt 0.437500 0.910348
vt 0.437500 0.920820
vt 0.515625 0.914597
vt 0.531250 0.914589
vt 0.546875 0.914580
vt 0.453125 0.927121
vt 0.468750 0.922949
vt 0.484375 0.918777
vt 0.546875 0.825182
vt 0.531250 0.825182
vt 0.515625 0.825183
vt 0.546875 0.879844
vt 0.531250 0.879037
vt 0.515625 0.879088
vt 0.500000 0.839895
vt 0.500000 0.854120
vt 0.500000 0.867532
vt 0.562500 0.839595
vt 0.562500 0.854009
vt 0.562500 0.868423
vt 0.484375 0.880921
vt 0.468750 0.882652
vt 0.453125 0.885126
vt 0.484375 0.825479
vt 0.468750 0.825774
vt 0.453125 0.826070
vt 0.437500 0.842125
vt 0.437500 0.857885
vt 0.437500 0.873644
vt 0.500000 0.890505
vt 0.500000 0.899906
vt 0.500000 0.908117
vt 0.562500 0.890770
vt 0.562500 0.898704
vt 0.562500 0.906638
vt 0.437500 0.899876
vt 0.437500 0.910348
vt 0.437500 0.920820
vt 0.515625 0.914597
vt 0.531250 0.914589
vt 0.546875 0.914580
vt 0.453125 0.927121
vt 0.468750 0.922949
vt 0.484375 0.918777
vt 0.453125 0.841469
vt 0.453125 0.856692
vt 0.453125 0.871482
vt 0.468750 0.840850
vt 0.468750 0.855612
vt 0.468750 0.869710
vt 0.484375 0.840307
vt 0.484375 0.854744
vt 0.484375 0.868412
vt 0.515625 0.839672
vt 0.515625 0.853753
vt 0.515625 0.867029
vt 0.531250 0.839581
vt 0.531250 0.853641
vt 0.531250 0.866979
vt 0.546875 0.839569
vt 0.546875 0.853762
vt 0.546875 0.867471
vt 0.515625 0.889635
vt 0.515625 0.898849
vt 0.515625 0.907039
vt 0.531250 0.889405
vt 0.531250 0.898452
vt 0.531250 0.906710
vt 0.546875 0.889830
vt 0.546875 0.898475
vt 0.546875 0.906627
vt 0.453125 0.896753
vt 0.453125 0.907230
vt 0.453125 0.917266
vt 0.468750 0.894078
vt 0.468750 0.904307
vt 0.468750 0.913805
vt 0.484375 0.891989
vt 0.484375 0.901783
vt 0.484375 0.910587
vt 0.453125 0.841469
vt 0.468750 0.840850
vt 0.484375 0.840307
vt 0.453125 0.856692
vt 0.468750 0.855612
vt 0.484375 0.854744
vt 0.453125 0.871482
vt 0.468750 0.869710
vt 0.484375 0.868412
vt 0.515625 0.839672
vt 0.531250 0.839581
vt 0.546875 0.839569
vt 0.515625 0.853753
vt 0.531250 0.853641
vt 0.546875 0.853762
vt 0.515625 0.867029
vt 0.531250 0.866979
vt 0.546875 0.867471
vt 0.515625 0.889635
vt 0.531250 0.889405
vt 0.546875 0.889830
vt 0.515625 0.898849
vt 0.531250 0.898452
vt 0.546875 0.898475
vt 0.515625 0.907039
vt 0.531250 0.906710
vt 0.546875 0.906627
vt 0.453125 0.896754
vt 0.468750 0.894078
vt 0.484375 0.891989
vt 0.453125 0.907230
vt 0.468750 0.904307
vt 0.484375 0.901783
vt 0.453125 0.917266
vt 0.468750 0.913805
vt 0.484375 0.910587
s 1
usemtl Glass
f 91/91/1 95/95/2 94/94/3
f 92/92/4 96/96/5 95/95/2
f 94/94/3 98/98/6 97/97/7
f 95/95/2 99/99/8 98/98/6
f 7/7/9 91/91/1 36/36/10
f 37/37/11 92/92/4 91/91/1
f 38/38/12 93/93/13 92/92/4
f 39/39/14 33/33/15 93/93/13
f 93/93/13 32/32/16 96/96/5
f 96/96/5 31/31/17 99/99/8
f 99/99/8 3/3/18 27/27/19
f 98/98/6 27/27/19 26/26/20
f 97/97/7 26/26/20 25/25/21
f 34/34/22 25/25/21 2/2/23
f 35/35/24 97/97/7 34/34/22
f 36/36/10 94/94/3 35/35/24
f 101/101/25 103/103/26 100/100/27
f 102/102/28 104/104/29 101/101/25
f 104/104/29 106/106/30 103/103/26
f 105/105/31 107/107/32 104/104/29
f 25/25/21 21/21/33 2/2/23
f 26/26/20 100/100/27 25/25/21
f 27/27/19 101/101/25 26/26/20
f 3/3/18 102/102/28 27/27/19
f 24/24/34 105/105/31 102/102/28
f 23/23/35 108/108/36 105/105/31
f 22/22/37 30/30/38 108/108/36
f 108/108/36 29/29/39 107/107/32
f 107/107/32 28/28/40 106/106/30
f 106/106/30 6/6/41 19/19/42
f 103/103/26 19/19/42 20/20/43
f 100/100/27 20/20/43 21/21/33
f 109/109/44 113/113/45 112/112/46
f 110/110/47 114/114/48 113/113/45
f 112/112/46 116/116/49 115/115/50
f 113/113/45 117/117/51 116/116/49
f 3/3/18 109/109/44 24/24/34
f 40/40/52 110/110/47 109/109/44
f 41/41/53 111/111/54 110/110/47
f 42/42/55 49/49/56 111/111/54
f 111/111/54 50/50/57 114/114/48
f 114/114/48 51/51/58 117/117/51
f 117/117/51 8/8/59 45/45/60
f 116/116/49 45/45/60 44/44/61
f 115/115/50 44/44/61 43/43/62
f 22/22/37 43/43/62 5/5/63
f 23/23/35 115/115/50 22/22/37
f 24/24/34 112/112/46 23/23/35
f 119/119/64 121/121/65 118/118/66
f 120/120/67 122/122/68 119/119/64
f 122/122/68 124/124/69 121/121/65
f 123/123/70 125/125/71 122/122/68
f 46/46/72 33/33/15 4/4/73
f 47/47/74 118/118/66 46/46/72
f 48/48/75 119/119/64 47/47/74
f 9/9/76 120/120/67 48/48/75
f 52/52/77 123/123/70 120/120/67
f 53/53/78 126/126/79 123/123/70
f 54/54/80 42/42/55 126/126/79
f 126/126/79 41/41/53 125/125/71
f 125/125/71 40/40/52 124/124/69
f 124/124/69 3/3/18 31/31/17
f 121/121/65 31/31/17 32/32/16
f 118/118/66 32/32/16 33/33/15
f 127/127/81 131/131/82 130/130/83
f 128/128/84 132/132/85 131/131/82
f 130/130/83 134/134/86 133/133/87
f 131/131/82 135/135/88 134/134/86
f 16/16/89 127/127/81 73/73/90
f 72/72/91 128/128/84 127/127/81
f 71/71/92 129/129/93 128/128/84
f 70/70/94 61/61/95 129/129/93
f 129/129/93 62/62/96 132/132/85
f 132/132/85 63/63/97 135/135/88
f 135/135/88 12/12/18 67/67/98
f 134/134/86 67/67/98 68/68/99
f 133/133/87 68/68/99 69/69/100
f 75/75/101 69/69/100 13/13/102
f 74/74/103 133/133/87 75/75/101
f 73/73/90 130/130/83 74/74/103
f 137/137/104 139/139/105 136/136/106
f 138/138/107 140/140/108 137/137/104
f 140/140/108 142/142/109 139/139/105
f 141/141/110 143/143/111 140/140/108
f 57/57/112 61/61/95 11/11/113
f 56/56/114 136/136/106 57/57/112
f 55/55/115 137/137/104 56/56/114
f 15/15/116 138/138/107 55/55/115
f 64/64/117 141/141/110 138/138/107
f 65/65/118 144/144/119 141/141/110
f 66/66/120 58/58/121 144/144/119
f 144/144/119 59/59/122 143/143/111
f 143/143/111 60/60/123 142/142/109
f 142/142/109 12/12/18 63/63/97
f 139/139/105 63/63/97 62/62/96
f 136/136/106 62/62/96 61/61/95
f 145/145/124 149/149/125 148/148/126
f 146/146/127 150/150/128 149/149/125
f 148/148/126 152/152/129 151/151/130
f 149/149/125 153/153/131 152/152/129
f 12/12/18 145/145/124 76/76/132
f 60/60/123 146/146/127 145/145/124
f 59/59/122 147/147/133 146/146/127
f 58/58/121 79/79/134 147/147/133
f 147/147/133 80/80/135 150/150/128
f 150/150/128 81/81/136 153/153/131
f 153/153/131 17/17/137 87/87/138
f 152/152/129 87/87/138 86/86/139
f 151/151/130 86/86/139 85/85/140
f 78/78/141 85/85/140 10/10/142
f 77/77/143 151/151/130 78/78/141
f 76/76/132 148/148/126 77/77/143
f 155/155/144 157/157/145 154/154/146
f 156/156/147 158/158/148 155/155/144
f 158/158/148 160/160/149 157/157/145
f 159/159/150 161/161/151 158/158/148
f 69/69/100 82/82/152 13/13/102
f 68/68/99 154/154/146 69/69/100
f 67/67/98 155/155/144 68/68/99
f 12/12/18 156/156/147 67/67/98
f 76/76/132 159/159/150 156/156/147
f 77/77/143 162/162/153 159/159/150
f 78/78/141 90/90/154 162/162/153
f 162/162/153 89/89/155 161/161/151
f 161/161/151 88/88/156 160/160/149
f 160/160/149 18/18/157 84/84/158
f 157/157/145 84/84/158 83/83/159
f 154/154/146 83/83/159 82/82/152
f 91/91/1 92/92/4 95/95/2
f 92/92/4 93/93/13 96/96/5
f 94/94/3 95/95/2 98/98/6
f 95/95/2 96/96/5 99/99/8
f 7/7/9 37/37/11 91/91/1
f 37/37/11 38/38/12 92/92/4
f 38/38/12 39/39/14 93/93/13
f 39/39/14 4/4/73 33/33/15
f 93/93/13 33/33/15 32/32/16
f 96/96/5 32/32/16 31/31/17
f 99/99/8 31/31/17 3/3/18
f 98/98/6 99/99/8 27/27/19
f 97/97/7 98/98/6 26/26/20
f 34/34/22 97/97/7 25/25/21
f 35/35/24 94/94/3 97/97/7
f 36/36/10 91/91/1 94/94/3
f 101/101/25 104/104/29 103/103/26
f 102/102/28 105/105/31 104/104/29
f 104/104/29 107/107/32 106/106/30
f 105/105/31 108/108/36 107/107/32
f 25/25/21 100/100/27 21/21/33
f 26/26/20 101/101/25 100/100/27
f 27/27/19 102/102/28 101/101/25
f 3/3/18 24/24/34 102/102/28
f 24/24/34 23/23/35 105/105/31
f 23/23/35 22/22/37 108/108/36
f 22/22/37 5/5/63 30/30/38
f 108/108/36 30/30/38 29/29/39
f 107/107/32 29/29/39 28/28/40
f 106/106/30 28/28/40 6/6/41
f 103/103/26 106/106/30 19/19/42
f 100/100/27 103/103/26 20/20/43
f 109/109/44 110/110/47 113/113/45
f 110/110/47 111/111/54 114/114/48
f 112/112/46 113/113/45 116/116/49
f 113/113/45 114/114/48 117/117/51
f 3/3/18 40/40/52 109/109/44
f 40/40/52 41/41/53 110/110/47
f 41/41/53 42/42/55 111/111/54
f 42/42/55 1/1/160 49/49/56
f 111/111/54 49/49/56 50/50/57
f 114/114/48 50/50/57 51/51/58
f 117/117/51 51/51/58 8/8/59
f 116/116/49 117/117/51 45/45/60
f 115/115/50 116/116/49 44/44/61
f 22/22/37 115/115/50 43/43/62
f 23/23/35 112/112/46 115/115/50
f 24/24/34 109/109/44 112/112/46
f 119/119/64 122/122/68 121/121/65
f 120/120/67 123/123/70 122/122/68
f 122/122/68 125/125/71 124/124/69
f 123/123/70 126/126/79 125/125/71
f 46/46/72 118/118/66 33/33/15
f 47/47/74 119/119/64 118/118/66
f 48/48/75 120/120/67 119/119/64
f 9/9/76 52/52/77 120/120/67
f 52/52/77 53/53/78 123/123/70
f 53/53/78 54/54/80 126/126/79
f 54/54/80 1/1/160 42/42/55
f 126/126/79 42/42/55 41/41/53
f 125/125/71 41/41/53 40/40/52
f 124/124/69 40/40/52 3/3/18
f 121/121/65 124/124/69 31/31/17
f 118/118/66 121/121/65 32/32/16
f 127/127/81 128/128/84 131/131/82
f 128/128/84 129/129/93 132/132/85
f 130/130/83 131/131/82 134/134/86
f 131/131/82 132/132/85 135/135/88
f 16/16/89 72/72/91 127/127/81
f 72/72/91 71/71/92 128/128/84
f 71/71/92 70/70/94 129/129/93
f 70/70/94 11/11/113 61/61/95
f 129/129/93 61/61/95 62/62/96
f 132/132/85 62/62/96 63/63/97
f 135/135/88 63/63/97 12/12/18
f 134/134/86 135/135/88 67/67/98
f 133/133/87 134/134/86 68/68/99
f 75/75/101 133/133/87 69/69/100
f 74/74/103 130/130/83 133/133/87
f 73/73/90 127/127/81 130/130/83
f 137/137/104 140/140/108 139/139/105
f 138/138/107 141/141/110 140/140/108
f 140/140/108 143/143/111 142/142/109
f 141/141/110 144/144/119 143/143/111
f 57/57/112 136/136/106 61/61/95
f 56/56/114 137/137/104 136/136/106
f 55/55/115 138/138/107 137/137/104
f 15/15/116 64/64/117 138/138/107
f 64/64/117 65/65/118 141/141/110
f 65/65/118 66/66/120 144/144/119
f 66/66/120 14/14/161 58/58/121
f 144/144/119 58/58/121 59/59/122
f 143/143/111 59/59/122 60/60/123
f 142/142/109 60/60/123 12/12/18
f 139/139/105 142/142/109 63/63/97
f 136/136/106 139/139/105 62/62/96
f 145/145/124 146/146/127 149/149/125
f 146/146/127 147/147/133 150/150/128
f 148/148/126 149/149/125 152/152/129
f 149/149/125 150/150/128 153/153/131
f 12/12/18 60/60/123 145/145/124
f 60/60/123 59/59/122 146/146/127
f 59/59/122 58/58/121 147/147/133
f 58/58/121 14/14/161 79/79/134
f 147/147/133 79/79/134 80/80/135
f 150/150/128 80/80/135 81/81/136
f 153/153/131 81/81/136 17/17/137
f 152/152/129 153/153/131 87/87/138
f 151/151/130 152/152/129 86/86/139
f 78/78/141 151/151/130 85/85/140
f 77/77/143 148/148/126 151/151/130
f 76/76/132 145/145/124 148/148/126
f 155/155/144 158/158/148 157/157/145
f 156/156/147 159/159/150 158/158/148
f 158/158/148 161/161/151 160/160/149
f 159/159/150 162/162/153 161/161/151
f 69/69/100 154/154/146 82/82/152
f 68/68/99 155/155/144 154/154/146
f 67/67/98 156/156/147 155/155/144
f 12/12/18 76/76/132 156/156/147
f 76/76/132 77/77/143 159/159/150
f 77/77/143 78/78/141 162/162/153
f 78/78/141 10/10/142 90/90/154
f 162/162/153 90/90/154 89/89/155
f 161/161/151 89/89/155 88/88/156
f 160/160/149 88/88/156 18/18/157
f 157/157/145 160/160/149 84/84/158
f 154/154/146 157/157/145 83/83/159
